<svg height="512" viewBox="0 0 64 64" width="512" xmlns="http://www.w3.org/2000/svg"><g id="flat"><rect fill="#233b8e" height="46" rx="4" width="58" x="3" y="11"/><circle cx="15" cy="35" fill="#50b4f8" r="10"/><circle cx="49" cy="35" fill="#50b4f8" r="10"/><path d="m10 35h-2a7.008 7.008 0 0 1 7-7v2a5.006 5.006 0 0 0 -5 5z" fill="#f4f4e6"/><path d="m15 42v-2a5.006 5.006 0 0 0 5-5h2a7.008 7.008 0 0 1 -7 7z" fill="#f4f4e6"/><path d="m49 42a7.008 7.008 0 0 1 -7-7h2a5.006 5.006 0 0 0 5 5z" fill="#f4f4e6"/><circle cx="15" cy="35" fill="#2d75bb" r="2"/><path d="m56 35h-2a5.006 5.006 0 0 0 -5-5v-2a7.008 7.008 0 0 1 7 7z" fill="#f4f4e6"/><circle cx="49" cy="35" fill="#2d75bb" r="2"/><path d="m7 49h4v4h-4z" fill="#fcf05a"/><path d="m11 49h4v4h-4z" fill="#f9bb4b"/><path d="m15 49h4v4h-4z" fill="#fcf05a"/><path d="m19 49h4v4h-4z" fill="#f9bb4b"/><path d="m41 49h4v4h-4z" fill="#fcf05a"/><path d="m45 49h4v4h-4z" fill="#f9bb4b"/><path d="m49 49h4v4h-4z" fill="#fcf05a"/><path d="m53 49h4v4h-4z" fill="#f9bb4b"/><path d="m24 11h6v4h-6z" fill="#f98c96"/><circle cx="17" cy="17" fill="#fcf05a" r="2"/><circle cx="24" cy="21" fill="#fcf05a" r="2"/><circle cx="47" cy="17" fill="#fcf05a" r="2"/><circle cx="40" cy="21" fill="#fcf05a" r="2"/><path d="m34 11h6v4h-6z" fill="#f98c96" transform="matrix(-1 0 0 -1 74 26)"/><path d="m29 18h2v2h-2z" fill="#fcf05a"/><path d="m33 18h2v2h-2z" fill="#fcf05a"/><path d="m29 22h2v2h-2z" fill="#fcf05a"/><path d="m33 22h2v2h-2z" fill="#fcf05a"/><path d="m29 26h2v2h-2z" fill="#fcf05a"/><path d="m33 26h2v2h-2z" fill="#fcf05a"/><path d="m3 17h8v4h-8z" fill="#e33e5c"/><path d="m6 14h2v3h-2z" fill="#50b4f8"/><path d="m6 21h2v4h-2z" fill="#50b4f8"/><path d="m53 17h8v4h-8z" fill="#e33e5c"/><g fill="#50b4f8"><path d="m56 14h2v3h-2z"/><path d="m56 21h2v4h-2z"/><path d="m27 50h2v4h-2z"/><path d="m27 42h2v5h-2z"/><path d="m35 49h2v5h-2z"/><path d="m35 42h2v4h-2z"/></g><path d="m29 31h6v4h-6z" fill="#f4f4e6"/><path d="m29 35h6v4h-6z" fill="#e8e7c8"/><path d="m23 7h4v4h-4z" fill="#f9bb4b"/><path d="m9 7h10v4h-10z" fill="#f9bb4b"/><path d="m37 7h4v4h-4z" fill="#f9bb4b" transform="matrix(-1 0 0 -1 78 18)"/><path d="m45 7h10v4h-10z" fill="#f9bb4b" transform="matrix(-1 0 0 -1 100 18)"/><rect fill="#e33e5c" height="4" rx="2" width="6" x="25" y="47"/><rect fill="#e33e5c" height="4" rx="2" width="6" x="33" y="45"/></g></svg>