<svg xmlns="http://www.w3.org/2000/svg" width="36.75" height="36.75" viewBox="0 0 36.75 36.75">
  <path id="heart_2_" data-name="heart (2)" d="M18.375,36.75a2.023,2.023,0,0,1-1.421-.6c-1.485-1.459-2.916-2.83-4.179-4.04l-.006-.006a82.389,82.389,0,0,1-9.124-9.626A16.458,16.458,0,0,1,0,12.414,13.874,13.874,0,0,1,2.915,3.6,9.415,9.415,0,0,1,10.266,0,8.617,8.617,0,0,1,16.04,2.24a12.743,12.743,0,0,1,2.334,2.74A12.744,12.744,0,0,1,20.71,2.24,8.617,8.617,0,0,1,26.484,0a9.415,9.415,0,0,1,7.351,3.6,13.874,13.874,0,0,1,2.915,8.818,16.456,16.456,0,0,1-3.645,10.064A82.372,82.372,0,0,1,23.982,32.1c-1.265,1.211-2.7,2.585-4.187,4.047A2.025,2.025,0,0,1,18.375,36.75ZM10.266,2.42A7.385,7.385,0,0,0,4.5,5.236a11.293,11.293,0,0,0-2.345,7.177,13.829,13.829,0,0,0,3.15,8.52,81.047,81.047,0,0,0,8.863,9.328l.007.006c1.268,1.214,2.7,2.591,4.2,4.061,1.5-1.473,2.944-2.851,4.214-4.068a81.061,81.061,0,0,0,8.862-9.328,13.83,13.83,0,0,0,3.149-8.52,11.293,11.293,0,0,0-2.345-7.177A7.385,7.385,0,0,0,26.484,2.42a6.656,6.656,0,0,0-4.457,1.735,11.492,11.492,0,0,0-2.484,3.231,1.287,1.287,0,0,1-2.334,0,11.481,11.481,0,0,0-2.484-3.231A6.656,6.656,0,0,0,10.266,2.42Zm0,0" fill="#ff436a"/>
</svg>
