<svg xmlns="http://www.w3.org/2000/svg" width="36.066" height="36.07" viewBox="0 0 36.066 36.07">
  <g id="Group_1898" data-name="Group 1898" transform="translate(-238.649 -72.646)">
    <g id="heart_1_" data-name="heart (1)" transform="translate(239.316 72.646)">
      <path id="Path_1780" data-name="Path 1780" d="M256.18,12.151A16.081,16.081,0,0,0,259.756,22a80.7,80.7,0,0,0,8.954,9.422c1.242,1.186,2.649,2.53,4.108,3.962a1.991,1.991,0,0,0,1.382.587V4.856a12.451,12.451,0,0,0-2.279-2.663A8.469,8.469,0,0,0,266.255,0a9.247,9.247,0,0,0-7.214,3.52A13.555,13.555,0,0,0,256.18,12.151Zm0,0" transform="translate(-256.18 0)" fill="#ff436a"/>
    </g>
    <path id="heart_2_" data-name="heart (2)" d="M18.033,35.973a1.988,1.988,0,0,1-1.394-.587c-1.457-1.428-2.862-2.771-4.1-3.955l-.006-.006A80.735,80.735,0,0,1,3.577,22,16.084,16.084,0,0,1,0,12.152,13.558,13.558,0,0,1,2.861,3.52,9.248,9.248,0,0,1,10.075,0a8.469,8.469,0,0,1,5.667,2.193,12.482,12.482,0,0,1,2.291,2.682,12.483,12.483,0,0,1,2.291-2.682A8.469,8.469,0,0,1,25.991,0a9.249,9.249,0,0,1,7.214,3.52,13.558,13.558,0,0,1,2.861,8.631A16.082,16.082,0,0,1,32.489,22a80.718,80.718,0,0,1-8.953,9.422c-1.242,1.186-2.648,2.53-4.109,3.962A1.989,1.989,0,0,1,18.033,35.973Zm-7.958-33.6A7.255,7.255,0,0,0,4.414,5.126a11.036,11.036,0,0,0-2.3,7.026A13.516,13.516,0,0,0,5.2,20.492a79.42,79.42,0,0,0,8.7,9.131l.007.006c1.244,1.189,2.654,2.536,4.122,3.975,1.477-1.442,2.889-2.791,4.135-3.982a79.434,79.434,0,0,0,8.7-9.131,13.517,13.517,0,0,0,3.091-8.34,11.036,11.036,0,0,0-2.3-7.026,7.254,7.254,0,0,0-5.661-2.757,6.542,6.542,0,0,0-4.375,1.7,11.252,11.252,0,0,0-2.438,3.163,1.264,1.264,0,0,1-2.291,0A11.242,11.242,0,0,0,14.45,4.066,6.542,6.542,0,0,0,10.075,2.369Zm0,0" transform="translate(238.649 72.743)" fill="#ff436a"/>
  </g>
</svg>
