<svg id="Capa_1" enable-background="new 0 0 512 512" height="512" viewBox="0 0 512 512" width="512" xmlns="http://www.w3.org/2000/svg"><g><g><g><path d="m444.62 158.345h-37.766v30h37.766c20.333 0 36.875 16.542 36.875 36.874v11.794c0 20.333-16.542 36.875-36.875 36.875h-69.57c-4.786 10.336-10.54 20.848-17.703 30h87.273c36.875 0 66.875-30 66.875-66.875v-11.794c0-36.874-30-66.874-66.875-66.874z" fill="#91d3aa"/><g><g><path d="m205.809 374.426c-9.624 0-19.009-3.87-25.749-10.618l-50.089-50.154c-29.789-29.828-46.194-69.24-46.194-110.976v-73.39c0-2.757 2.243-5 5-5h333.434c2.757 0 5 2.243 5 5v73.39c0 41.736-16.405 81.148-46.193 110.976l-50.089 50.154c-6.739 6.748-16.124 10.618-25.748 10.618z" fill="#91d3aa"/><path d="m422.211 124.287h-166.716v250.139h49.686c9.625 0 19.009-3.87 25.748-10.618l50.089-50.154c29.788-29.828 46.193-69.24 46.193-110.976v-73.39c0-2.758-2.243-5.001-5-5.001z" fill="#64a693"/></g><g><path d="m422.211 144.287h-333.433c-8.284 0-15-6.716-15-15s6.716-15 15-15h333.434c8.284 0 15 6.716 15 15-.001 8.284-6.716 15-15.001 15z" fill="#de5958"/><path d="m422.211 114.287h-166.716v30h166.717c8.284 0 15-6.716 15-15-.001-8.284-6.716-15-15.001-15z" fill="#d9225b"/></g></g></g><g><path d="m345.495 84.178c-8.284 0-15-6.716-15-15v-54.178c0-8.284 6.716-15 15-15s15 6.716 15 15v54.178c0 8.284-6.716 15-15 15z" fill="#bbd0d5"/><path d="m285.495 84.178c-8.284 0-15-6.716-15-15v-54.178c0-8.284 6.716-15 15-15s15 6.716 15 15v54.178c0 8.284-6.716 15-15 15z" fill="#bbd0d5"/><g fill="#e2e9ee"><path d="m225.495 84.178c-8.284 0-15-6.716-15-15v-54.178c0-8.284 6.716-15 15-15s15 6.716 15 15v54.178c0 8.284-6.716 15-15 15z"/><path d="m165.495 84.178c-8.284 0-15-6.716-15-15v-54.178c0-8.284 6.716-15 15-15s15 6.716 15 15v54.178c0 8.284-6.716 15-15 15z"/></g></g></g><g><g><g><path d="m99.762 492c-49.628 0-79.257-21.916-79.257-58.625 0-36.71 29.629-58.626 79.257-58.626h397.197l-7.646 14.631c-3.624 6.935-6.541 13.958-8.672 20.874-7.477 24.27-5.591 46.771 5.604 66.882l8.276 14.864z" fill="#fbf4f4"/><path d="m476.246 435.27h-455.692c1.011 35.56 30.445 56.73 79.208 56.73h394.759l-8.275-14.864c-7.242-13.01-10.564-27.025-10-41.866z" fill="#e2e9ee"/></g><g><path d="m478.085 420.27h-378.345c-8.284 0-15 6.716-15 15s6.716 15 15 15h377.302c-1.431-9.613-1.084-19.63 1.043-30z" fill="#e2e9ee"/><path d="m476.245 435.27h-391.505c0 8.284 6.716 15 15 15h377.302c-.729-4.897-.991-9.9-.797-15z" fill="#bbd0d5"/></g></g><g><path d="m495.484 482h-395.722c-44.014 0-69.257-17.723-69.257-48.625s25.243-48.626 69.257-48.626h395.722c8.284 0 15-6.716 15-15s-6.716-15-15-15h-395.722c-31.284 0-56.06 7.466-73.642 22.191-16.518 13.833-25.615 33.875-25.615 56.435 0 22.559 9.097 42.602 25.615 56.435 17.582 14.724 42.359 22.19 73.642 22.19h395.722c8.284 0 15-6.716 15-15s-6.716-15-15-15z" fill="#457899"/><path d="m495.484 482h-395.722c-43.102 0-68.187-17.005-69.208-46.73h-30.001c.497 21.782 9.514 41.097 25.567 54.54 17.582 14.724 42.359 22.19 73.642 22.19h395.722c8.284 0 15-6.716 15-15s-6.716-15-15-15z" fill="#2b495d"/></g></g></g></svg>