<svg xmlns="http://www.w3.org/2000/svg" width="36.188" height="34.699" viewBox="0 0 36.188 34.699">
  <g id="XMLID_1159_" transform="translate(-3.494)">
    <g id="XMLID_2123_" transform="translate(2.066 0)">
      <path id="XMLID_2121_" d="M42.872,21.036l3.075-9.564a2.122,2.122,0,0,1,4.038,0l3.1,9.569h10.1a2.122,2.122,0,0,1,1.245,3.839l-8.155,5.913,3.131,9.543a2.122,2.122,0,0,1-3.263,2.378l-8.124-5.9-8.153,5.94A2.122,2.122,0,0,1,36.6,40.372l3.125-9.591-8.176-5.9a2.122,2.122,0,0,1,1.242-3.842Z" transform="translate(-28.47 -9.231)" fill="#707070" opacity="0.538"/>
      <g id="XMLID_2119_" transform="translate(1.428 0)">
        <path id="XMLID_871_" d="M29.366,34.7a2.882,2.882,0,0,1-1.7-.562,2.847,2.847,0,0,1-1.05-3.234l2.952-9.058L21.848,16.27a2.89,2.89,0,0,1,1.692-5.234h9.518l2.9-9.031A2.847,2.847,0,0,1,38.71,0h0a2.847,2.847,0,0,1,2.749,2l2.93,9.038h1.032a.769.769,0,1,1,0,1.538H43.834a.769.769,0,0,1-.731-.532L40,2.473a1.318,1.318,0,0,0-1.287-.936h0a1.319,1.319,0,0,0-1.286.939L34.35,12.041a.769.769,0,0,1-.732.533H23.54a1.353,1.353,0,0,0-.792,2.45l8.176,5.9a.769.769,0,0,1,.281.862L28.08,31.38a1.353,1.353,0,0,0,2.083,1.513l8.153-5.94a.769.769,0,0,1,.9,0l8.124,5.9a1.353,1.353,0,0,0,2.081-1.516L46.295,21.8a.769.769,0,0,1,.279-.862l8.155-5.913a1.353,1.353,0,0,0-.794-2.448H52.344a.769.769,0,0,1,0-1.538h1.591a2.89,2.89,0,0,1,1.7,5.23l-7.7,5.584,2.956,9.01A2.89,2.89,0,0,1,46.441,34.1l-7.672-5.576-7.7,5.611a2.882,2.882,0,0,1-1.7.565Z" transform="translate(-20.643 0)"/>
      </g>
    </g>
    <g id="XMLID_1847_" transform="translate(30.967 11.037)">
      <g id="XMLID_1848_">
        <path id="XMLID_851_" d="M378.759,145.1a.769.769,0,1,1,.544-.225A.774.774,0,0,1,378.759,145.1Z" transform="translate(-377.99 -143.56)"/>
      </g>
    </g>
  </g>
</svg>
