<svg id="Layer_5" enable-background="new 0 0 64 64" height="512" viewBox="0 0 64 64" width="512" xmlns="http://www.w3.org/2000/svg"><g><g><g><path d="m20 40 3 8h12v10c0 2.21-1.79 4-4 4h-12v-22z" fill="#d3a06c"/></g><g><path d="m19 40v22h-10c-2.21 0-4-1.79-4-4v-10h10l3-8z" fill="#d3a06c"/></g><g><path d="m20 40h2 6 7l3 8c-.26 0-1.43 0-3 0-4.4 0-12 0-12 0z" fill="#b27946"/></g><g><path d="m18 40-3 8h-10-3l3-8h7z" fill="#b27946"/></g><g><path d="m23.42 22.28-2.48-.93c-.21-.08-.39-.2-.54-.35-.25-.26-.4-.62-.4-1 0-.6.37-1.14.94-1.35l7.06-2.65h9.6c-1.72-8-8.84-14-17.36-14h-.48c-4.9 0-9.34 1.99-12.56 5.2-3.21 3.22-5.2 7.66-5.2 12.56 0 2.9.71 5.7 2.01 8.2 1.3 2.49 3.19 4.68 5.56 6.34 1.52 1.07 2.43 2.81 2.43 4.66v1.04h6 1 1 2 6v-1.04c0-.92.23-1.82.64-2.62.42-.8 1.03-1.5 1.79-2.04 3.56-2.49 6.04-6.17 7.06-10.3h-9.49z" fill="#ffeaa7"/></g><g><path d="m16.22 17.76.26 3.24h-3.48c-.83 0-1.58-.34-2.12-.88s-.88-1.29-.88-2.12c0-1.66 1.34-3 3-3h.23c1.56 0 2.87 1.2 2.99 2.76z" fill="#fcd770"/></g><g><path d="m28 20v4l-4.58-1.72-2.48-.93c-.21-.08-.39-.2-.54-.35-.25-.26-.4-.62-.4-1 0-.6.37-1.14.94-1.35l7.06-2.65z" fill="#aab2bd"/></g><g><path d="m44.53 22.84c.06.15.11.29.18.43l-.37.73h-6.85-9.49v-4h14v2z" fill="#ff826e"/></g><g><path d="m44.34 16 .37.73c-.07.14-.12.28-.18.43l-2.53.84v2h-14v-4h9.6z" fill="#b4dd7f"/></g><g><path d="m62 18v4l-2.53.84c-.06.15-.11.29-.18.43l1.2 2.39-2.83 2.83-2.39-1.2c-.14.07-.28.12-.43.18l-.84 2.53h-4l-.84-2.53c-.15-.06-.29-.11-.43-.18l-2.39 1.2-2.83-2.83.83-1.66.37-.73c-.07-.14-.12-.28-.18-.43l-2.53-.84v-2-2l2.53-.84c.06-.15.11-.29.18-.43l-.37-.73-.83-1.66 2.83-2.83 2.39 1.2c.14-.07.28-.12.43-.18l.84-2.53h4l.84 2.53c.15.06.29.11.43.18l2.39-1.2 2.83 2.83-1.2 2.39c.07.14.12.28.18.43zm-6 2c0-2.21-1.79-4-4-4s-4 1.79-4 4 1.79 4 4 4 4-1.79 4-4z" fill="#fcd770"/></g></g><g><path d="m26 57h6v2h-6z"/><path d="m63 17.279-2.455-.819 1.157-2.314-3.848-3.848-2.315 1.158-.818-2.456h-5.441l-.818 2.456-2.315-1.158-3.848 3.848.426.854h-4.352c-2.138-8.156-9.624-14-18.129-14h-.488c-10.342 0-18.756 8.414-18.756 18.755 0 6.115 2.99 11.859 8 15.365 1.252.876 2 2.313 2 3.841v.039h-6.693l-3.75 10h3.443v9c0 2.757 2.243 5 5 5h22c2.757 0 5-2.243 5-5v-9h3.443l-3.75-10h-6.693v-.038c0-1.528.748-2.965 2-3.841 3.505-2.453 6.039-6.029 7.232-10.121h4.493l-.427.854 3.848 3.848 2.315-1.158.818 2.456h5.441l.818-2.456 2.315 1.158 3.848-3.848-1.157-2.314 2.456-.819zm-44.077 21.721-1.36-17h2.489c.164.115.34.215.532.288l1.775.666-1.282 16.046zm2.364-18.585c-.172-.065-.287-.231-.287-.415s.115-.35.288-.415l5.712-2.142v5.114zm7.713.585h12v1.721l.837.279h-12.837zm12-3.721v1.721h-12v-2h12.837zm-30.854 16.203c-4.474-3.132-7.146-8.264-7.146-13.727 0-9.238 7.517-16.755 16.756-16.755h.488c7.423 0 13.983 4.979 16.063 12h-8.489l-7.232 2.712c-.948.355-1.586 1.275-1.586 2.288h-1.597l-.186-2.319c-.165-2.064-1.916-3.681-3.987-3.681h-.23c-2.206 0-4 1.794-4 4s1.794 4 4 4h2.557l1.36 17h-3.917v-.038c0-2.181-1.066-4.229-2.854-5.48zm5.25-13.482h-2.396c-1.103 0-2-.897-2-2s.897-2 2-2h.23c1.035 0 1.911.809 1.993 1.84zm-9.703 21h10.863l-2.25 6h-10.863zm.307 17v-9h9.693l2.307-6.151v18.151h-9c-1.654 0-3-1.346-3-3zm28 0c0 1.654-1.346 3-3 3h-11v-18.151l2.307 6.151h11.693zm2.557-11h-12.864l-2.25-6h12.863zm-6.703-13.518c-1.788 1.251-2.854 3.299-2.854 5.48v.038h-3.917l1.225-15.316 3.51 1.316h8.331c-1.128 3.422-3.325 6.403-6.295 8.482zm31.146-12.203-2.294.765-.169.441c-.05.128-.1.255-.155.379l-.194.433 1.081 2.162-1.809 1.809-2.162-1.081-.433.194c-.123.055-.248.105-.375.153l-.445.168-.766 2.298h-2.559l-.766-2.298-.445-.168c-.127-.048-.252-.098-.375-.153l-.433-.194-2.162 1.081-1.809-1.809 1.081-2.162-.194-.433c-.056-.125-.105-.251-.155-.379l-.169-.441-2.293-.765v-2.559l2.294-.765.169-.441c.05-.128.1-.255.155-.379l.194-.433-1.081-2.162 1.809-1.809 2.162 1.081.433-.194c.123-.055.248-.105.375-.153l.445-.168.766-2.297h2.559l.766 2.298.445.168c.127.048.252.098.375.153l.433.194 2.162-1.081 1.809 1.809-1.081 2.162.194.433c.056.125.105.251.155.379l.169.441 2.293.765z"/><path d="m52 15c-2.757 0-5 2.243-5 5s2.243 5 5 5 5-2.243 5-5-2.243-5-5-5zm0 8c-1.654 0-3-1.346-3-3s1.346-3 3-3 3 1.346 3 3-1.346 3-3 3z"/><path d="m7 20h-2c0 .712.051 1.433.151 2.141l1.98-.281c-.087-.616-.131-1.241-.131-1.86z"/><path d="m7.539 23.715-1.918.57c1.096 3.683 3.538 6.775 6.878 8.708l1.002-1.731c-2.896-1.676-5.014-4.356-5.962-7.547z"/><path d="m25 7h2v2h-2z"/><path d="m13 7h2v2h-2z"/><path d="m21 7h2v2h-2z"/><path d="m17 7h2v2h-2z"/></g></g></svg>