<svg id="Layer_1" enable-background="new 0 0 512.001 512.001" height="512" viewBox="0 0 512.001 512.001" width="512" xmlns="http://www.w3.org/2000/svg"><g><g clip-rule="evenodd" fill-rule="evenodd"><path d="m164.295 104.523 19.117-15.337c3.915-3.141 7.451-8.156 4.069-15.3l-27.297-57.669c-2.12-4.48-6.655-7.336-11.449-5.81l-26.149 8.324c-4.794 1.526-6.843 6.478-5.984 11.359l11.062 62.836c1.37 7.783 7.154 9.832 12.165 10.132z" fill="#ff5d7d"/><path d="m179.86 153.422c-2.008.639-3.949 1.611-5.743 2.926l-36.921 27.114c11.848 6.944 19.804 19.81 19.804 34.534 0 .146-.001.292-.006.441l35.308-25.929 5.409-3.972c8.888-6.515 10.812-19.003 4.297-27.891-5.2-7.095-14.205-9.753-22.148-7.223z" fill="#ffdcd5"/><path d="m157 217.996c0-14.724-7.956-27.59-19.804-34.534-5.928-3.474-12.829-5.466-20.196-5.466-22.091 0-40 17.909-40 40 0 7.377 1.997 14.289 5.481 20.222 6.947 11.833 19.805 19.778 34.519 19.778 11.511 0 21.886-4.862 29.184-12.645 6.615-7.055 10.702-16.509 10.814-26.917.001-.146.002-.292.002-.438z" fill="#ffdcd5"/><path d="m146.183 245.351c-7.298 7.783-17.673 12.645-29.184 12.645-14.714 0-27.572-7.944-34.519-19.778-16.391 23.61-30.391 69.946-26.391 103.778h73.26v-51.189l16.296 13.251 25.971-31.94z" fill="#8690af"/><path d="m171.616 272.117-25.971 31.94 5.645 4.59c6.044 4.521 14.899 7.06 23.679 4.278l50.485-16.185c.008-.003.017-.005.025-.008 10.469-3.332 16.264-14.516 12.944-24.992-3.322-10.485-14.515-16.291-25-12.969l-.025.008z" fill="#ffdcd5"/><path d="m174 396.998c19.812 0 21.189-15 41-15 19.812 0 21.188 15 41 15s21.188-15 41-15 21.188 15 41 15 21.188-15 41-15 21.188 15 41 15c18.926 0 21.03-13.687 38.451-14.912 7.59-11.509 13.453-24.806 17.549-40.09h-20-180-40-200c4.09 15.264 9.995 28.568 17.67 40.098 17.311 1.279 19.447 14.904 38.33 14.904 19.812 0 21.188-15 41-15s21.189 15 41 15z" fill="#ff5d7d"/><path d="m297 442c19.812 0 21.188 15 41 15s21.188-15 41-15 21.188 15 41 15 21.188-15 41-15 21.188 15 41 15v-60.002c-19.812 0-21.188-15-41-15s-21.188 15-41 15-21.188-15-41-15-21.188 15-41 15-21.188-15-41-15-21.188 15-41 15-21.188-15-41-15-21.188 15-41 15-21.188-15-41-15-21.188 15-41 15-21.188-15-41-15-21.188 15-41 15v60.002c19.812 0 21.188-15 41-15s21.188 15 41 15 21.188-15 41-15 21.188 15 41 15 21.189-15 41-15c19.812 0 21.188 15 41 15s21.189-15 41-15z" fill="#99ebfa"/><path d="m338.001 457c-19.812 0-21.188-15-41-15s-21.188 15-41 15-21.188-15-41-15-21.188 15-41 15-21.188-15-41-15-21.188 15-41 15-21.188-15-41-15-21.188 15-41 15v44.995h492.001v-44.995c-19.812 0-21.188-15-41-15s-21.188 15-41 15-21.188-15-41-15c-19.813 0-21.189 15-41.001 15z" fill="#33d6f5"/><path d="m378.296 104.523 19.117-15.337c3.915-3.141 7.451-8.156 4.069-15.3l-27.297-57.669c-2.12-4.48-6.655-7.336-11.449-5.81l-26.149 8.324c-4.794 1.526-6.843 6.478-5.984 11.359l11.062 62.836c1.37 7.783 7.154 9.832 12.165 10.132z" fill="#ff5d7d"/><path d="m393.861 153.422c-2.008.639-3.949 1.611-5.743 2.926l-36.921 27.114c11.848 6.944 19.804 19.81 19.804 34.534 0 .146-.001.292-.006.441l35.308-25.929 5.409-3.972c8.888-6.515 10.812-19.003 4.297-27.891-5.201-7.095-14.206-9.753-22.148-7.223z" fill="#ffdcd5"/><path d="m371 217.996c0-14.724-7.956-27.59-19.804-34.534-5.928-3.474-12.829-5.466-20.196-5.466-22.091 0-40 17.909-40 40 0 7.377 1.997 14.289 5.481 20.222 6.947 11.833 19.805 19.778 34.519 19.778 11.511 0 21.886-4.862 29.184-12.645 6.616-7.055 10.702-16.509 10.814-26.917.001-.146.002-.292.002-.438z" fill="#ffdcd5"/><path d="m360.184 245.351c-7.298 7.783-17.673 12.645-29.184 12.645-14.714 0-27.572-7.944-34.519-19.778-16.391 23.61-30.391 69.946-26.391 103.778h73.26v-51.189l16.296 13.251 25.971-31.94z" fill="#8690af"/><path d="m385.616 272.117-25.971 31.94 5.645 4.59c6.043 4.521 14.899 7.06 23.679 4.278l50.485-16.185c.008-.003.017-.005.025-.008 10.469-3.332 16.263-14.516 12.944-24.992-3.322-10.485-14.515-16.291-25-12.969l-.025.008z" fill="#ffdcd5"/></g><g><path d="m502.001 386.998c-6.724 0-9.906-2.252-14.722-5.662-3.43-2.428-7.36-5.196-12.631-7.086l-.069-.216c4.527-9.042 8.249-18.885 11.08-29.45.805-3.003.167-6.209-1.726-8.676-1.893-2.466-4.825-3.912-7.934-3.912h-14.802l-9.675-30.394c3.497-2.648 6.389-6.062 8.469-10.071 3.679-7.094 4.376-15.194 1.963-22.812-2.414-7.617-7.649-13.839-14.743-17.519-4.031-2.091-8.389-3.216-12.801-3.355l-16.406-51.541c12.988-9.844 15.737-28.383 6.068-41.574-5.647-7.703-14.309-11.91-23.187-12.208l-10.981-34.495 13.764-11.042c8.99-7.212 11.551-17.447 6.85-27.379l-27.296-57.667c-4.42-9.342-14.313-13.992-23.521-11.063l-26.149 8.323c-9.208 2.932-14.59 12.446-12.798 22.622l11.062 62.838c1.906 10.82 9.912 17.691 21.417 18.38l17.615 1.054 10.972 34.47-31.663 23.253c-5.904-2.458-12.373-3.822-19.157-3.822-27.57 0-50 22.43-50 50 0 6.939 1.423 13.551 3.989 19.563-14.169 23.206-26.213 61.48-25.571 94.438h-12.22l-9.675-30.393c3.497-2.648 6.389-6.063 8.469-10.071 3.68-7.094 4.377-15.194 1.963-22.812-2.414-7.617-7.649-13.839-14.743-17.519-4.032-2.091-8.389-3.216-12.802-3.355l-16.406-51.54c12.988-9.844 15.737-28.383 6.068-41.574-4.73-6.453-11.69-10.678-19.598-11.896-1.2-.185-2.4-.289-3.595-.33l-10.975-34.477 13.764-11.042c8.99-7.212 11.551-17.447 6.851-27.379l-27.296-57.667c-4.42-9.342-14.312-13.992-23.521-11.063l-26.149 8.324c-9.208 2.932-14.59 12.445-12.798 22.621l11.062 62.837c1.905 10.821 9.911 17.692 21.416 18.381l17.615 1.054 10.972 34.47-31.663 23.252c-5.904-2.458-12.373-3.822-19.157-3.822-27.57 0-50 22.43-50 50 0 6.939 1.423 13.551 3.989 19.563-14.169 23.207-26.213 61.48-25.572 94.438h-9.417c-3.109 0-6.041 1.446-7.934 3.912-1.893 2.467-2.53 5.673-1.726 8.676 2.844 10.614 6.61 20.507 11.209 29.597-5.37 1.891-9.356 4.697-12.828 7.155-4.816 3.41-7.998 5.662-14.722 5.662-5.523 0-10 4.478-10 10v104.996c0 5.522 4.477 10 10 10h492.001c5.523 0 10-4.478 10-10v-104.995c.001-5.522-4.476-10-9.999-10zm-148.651-75.171 5.632 4.579c.105.085.211.168.319.249 9.503 7.109 21.724 9.277 32.722 5.793l40.968-13.134 7.22 22.682h-86.86v-20.169zm89.54-37.066c.8 2.524.569 5.21-.651 7.561-1.219 2.351-3.281 4.086-5.838 4.896l-50.453 16.175c-4.361 1.383-8.675.501-11.967-1.115l17.514-21.54 38.948-12.433c2.526-.801 5.21-.57 7.561.65 2.351 1.219 4.086 3.281 4.886 5.806zm-62.231-51.014 20.338-14.936 13.841 43.481-26.291 8.393-15.259-16.06c3.907-6.182 6.496-13.271 7.371-20.878zm27.284-57.191c3.245 4.427 2.283 10.669-2.15 13.919l-27.806 20.42c-2.328-6.376-5.925-12.142-10.474-17.008l26.517-19.474c4.428-3.246 10.669-2.284 13.913 2.143zm-53.515-73.48c-2.609-.156-2.686-.592-2.914-1.883l-11.062-62.838c-.023-.129-.034-.246-.038-.349l24.56-7.818c.057.087.115.188.171.308l27.296 57.668c.562 1.187.75 1.586-1.288 3.222l-7.75 6.218-2.114-6.64c-1.675-5.263-7.297-8.168-12.562-6.496-5.263 1.676-8.171 7.3-6.496 12.563l2.114 6.64zm-23.428 94.919c16.542 0 30 13.458 30 30 0 16.543-13.458 30.001-30 30.001s-30-13.458-30-30.001c0-16.542 13.458-30 30-30zm-33.083 67.445c8.823 7.805 20.406 12.556 33.084 12.556 10.56 0 20.359-3.3 28.44-8.909l12.87 13.545-14.114 17.358-8.537-6.942c-2.994-2.435-7.121-2.929-10.605-1.271-3.484 1.657-5.704 5.172-5.704 9.03v41.189h-53.913c-.528-25.129 7.905-55.752 18.479-76.556zm148.659 96.556 6.369 20.008c-.161.274-.322.548-.485.82-7.995 1.625-13.282 5.359-17.737 8.512-4.816 3.409-7.998 5.662-14.722 5.662-6.725 0-9.906-2.253-14.722-5.662-5.876-4.16-13.19-9.339-26.278-9.339s-20.401 5.179-26.278 9.339c-4.816 3.409-7.998 5.662-14.722 5.662s-9.906-2.252-14.722-5.662c-5.876-4.16-13.19-9.339-26.278-9.339-13.087 0-20.401 5.179-26.278 9.339-2.365 1.674-4.338 3.068-6.528 4.054l-10.63-33.394zm-386.929 20.847c-3.873-6.372-7.22-13.338-9.996-20.847h182.925l9.524 29.92c-.269-.19-.542-.383-.822-.581-5.876-4.16-13.19-9.339-26.278-9.339s-20.401 5.179-26.278 9.339c-4.816 3.409-7.998 5.662-14.722 5.662s-9.906-2.252-14.722-5.662c-5.876-4.16-13.19-9.339-26.278-9.339-13.087 0-20.401 5.179-26.278 9.339-4.816 3.409-7.998 5.662-14.722 5.662s-9.906-2.252-14.722-5.662c-4.435-3.139-9.693-6.856-17.631-8.492zm79.703-40.847v-20.169l5.631 4.579c.105.085.211.168.319.249 9.503 7.108 21.722 9.276 32.721 5.793l40.968-13.134 7.22 22.682zm89.54-57.235c.8 2.524.569 5.21-.651 7.561s-3.281 4.086-5.838 4.896l-50.453 16.175c-4.361 1.382-8.675.502-11.968-1.115l17.514-21.54 38.948-12.433c2.525-.801 5.21-.568 7.561.65 2.352 1.219 4.087 3.281 4.887 5.806zm-62.231-51.014 20.339-14.936 13.841 43.481-26.291 8.393-15.26-16.06c3.907-6.182 6.495-13.271 7.371-20.878zm27.284-57.191c3.245 4.427 2.283 10.669-2.15 13.919l-27.806 20.42c-2.328-6.376-5.925-12.142-10.474-17.008l26.518-19.474c2.145-1.573 4.773-2.216 7.4-1.811 2.627.406 4.94 1.809 6.512 3.954zm-53.516-73.48c-2.609-.156-2.686-.591-2.913-1.883l-11.062-62.838c-.023-.129-.034-.246-.038-.349l24.56-7.818c.057.087.115.188.171.308l27.296 57.668c.562 1.186.751 1.586-1.288 3.222l-7.75 6.218-2.114-6.641c-1.674-5.263-7.298-8.168-12.562-6.496-5.263 1.676-8.171 7.3-6.496 12.563l2.114 6.64zm-23.427 94.919c16.542 0 30 13.458 30 30 0 16.543-13.458 30.001-30 30.001s-30-13.458-30-30.001c0-16.542 13.458-30 30-30zm-33.084 67.445c8.823 7.805 20.406 12.556 33.084 12.556 10.56 0 20.359-3.3 28.44-8.909l12.87 13.545-14.114 17.358-8.537-6.942c-2.995-2.435-7.121-2.929-10.605-1.271s-5.704 5.172-5.704 9.03v41.189h-53.913c-.527-25.129 7.906-55.752 18.479-76.556zm-63.916 236.554v-25.922c7.709-1.676 12.858-5.328 17.211-8.422 4.787-3.402 7.949-5.65 14.623-5.65s9.836 2.248 14.623 5.65c5.86 4.166 13.152 9.35 26.21 9.35s20.351-5.185 26.21-9.35c4.787-3.402 7.95-5.65 14.623-5.65s9.836 2.248 14.623 5.65c5.86 4.166 13.153 9.35 26.21 9.35s20.351-5.184 26.211-9.349c4.001-2.844 6.892-4.898 11.664-5.48 5.482-.669 9.384-5.656 8.715-11.138s-5.661-9.394-11.137-8.715c-9.803 1.195-15.916 5.54-20.828 9.031-4.788 3.402-7.951 5.65-14.625 5.65-6.673 0-9.836-2.248-14.623-5.65-5.86-4.166-13.153-9.35-26.21-9.35s-20.35 5.184-26.21 9.35c-4.787 3.402-7.95 5.65-14.624 5.65-6.673 0-9.835-2.248-14.623-5.65-5.86-4.165-13.153-9.35-26.21-9.35s-20.351 5.185-26.21 9.35c-2.036 1.447-3.78 2.683-5.624 3.628v-39.126c7.193-1.76 12.099-5.233 16.278-8.192 4.816-3.41 7.998-5.662 14.722-5.662s9.906 2.252 14.722 5.662c5.876 4.16 13.19 9.339 26.278 9.339s20.402-5.179 26.278-9.339c4.816-3.41 7.998-5.662 14.722-5.662 6.725 0 9.906 2.252 14.722 5.662 5.876 4.16 13.19 9.339 26.278 9.339s20.401-5.179 26.278-9.339c4.816-3.41 7.998-5.662 14.722-5.662s9.906 2.252 14.722 5.662c5.876 4.16 13.19 9.339 26.278 9.339 13.087 0 20.401-5.179 26.278-9.339 4.816-3.41 7.998-5.662 14.722-5.662 6.725 0 9.906 2.252 14.722 5.662 5.876 4.16 13.19 9.339 26.278 9.339s20.401-5.179 26.278-9.339c4.816-3.41 7.998-5.662 14.722-5.662s9.906 2.252 14.722 5.662c5.876 4.16 13.19 9.339 26.278 9.339 13.087 0 20.401-5.179 26.278-9.339 4.816-3.41 7.998-5.662 14.722-5.662 6.725 0 9.906 2.252 14.722 5.662 4.179 2.959 9.085 6.433 16.278 8.192v39.126c-1.844-.945-3.587-2.181-5.624-3.628-5.86-4.166-13.152-9.35-26.21-9.35s-20.351 5.184-26.21 9.35c-4.787 3.402-7.95 5.65-14.623 5.65s-9.836-2.248-14.623-5.65c-5.86-4.165-13.152-9.35-26.21-9.35s-20.351 5.185-26.21 9.35c-4.787 3.402-7.949 5.65-14.623 5.65s-9.837-2.248-14.625-5.65c-4.914-3.492-11.028-7.838-20.837-9.032-5.486-.663-10.468 3.236-11.135 8.719-.667 5.482 3.236 10.467 8.718 11.135 4.774.581 7.666 2.636 11.667 5.48 5.86 4.165 13.154 9.349 26.211 9.349 13.058 0 20.351-5.185 26.21-9.35 4.787-3.402 7.949-5.65 14.623-5.65 6.673 0 9.836 2.248 14.623 5.65 5.86 4.165 13.152 9.35 26.21 9.35s20.351-5.184 26.21-9.35c4.787-3.402 7.95-5.65 14.623-5.65s9.836 2.248 14.623 5.65c4.353 3.094 9.502 6.746 17.211 8.422v25.922z"/><path d="m256 447h-.007c-5.523 0-9.996 4.478-9.996 10s4.48 10 10.003 10 10-4.478 10-10-4.477-10-10-10z"/></g></g></svg>